<svg width="12" height="9" viewBox="0 0 12 9" fill="none" xmlns="http://www.w3.org/2000/svg">
<path d="M10.2102 8.99983H1.79019C1.45778 9.00031 1.13203 8.90664 0.850638 8.72967C0.56925 8.55269 0.343733 8.29965 0.200191 7.99983C0.0321586 7.64408 -0.0325605 7.24829 0.0134084 6.85756C0.0593773 6.46682 0.214185 6.09686 0.460191 5.78983L4.67019 0.689827C4.83541 0.499197 5.03967 0.346311 5.26914 0.241529C5.49861 0.136748 5.74793 0.0825195 6.00019 0.0825195C6.25245 0.0825195 6.50177 0.136748 6.73124 0.241529C6.96071 0.346311 7.16497 0.499197 7.33019 0.689827L11.5402 5.78983C11.7862 6.09686 11.941 6.46682 11.987 6.85756C12.0329 7.24829 11.9682 7.64408 11.8002 7.99983C11.6566 8.29965 11.4311 8.55269 11.1497 8.72967C10.8684 8.90664 10.5426 9.00031 10.2102 8.99983Z" fill="#2AE168"/>
</svg>
