<svg width="17" height="16" viewBox="0 0 17 16" fill="none" xmlns="http://www.w3.org/2000/svg">
<path fill-rule="evenodd" clip-rule="evenodd" d="M8.5 16C4.1 16 0.5 12.4001 0.5 7.96017C0.54 3.56026 4.1 -0.039669 8.54 0.000330136C12.94 0.0403293 16.5 3.60026 16.5 8.08016C16.46 12.4401 12.9 16 8.5 16Z" fill="#E42D04"/>
<path fill-rule="evenodd" clip-rule="evenodd" d="M8.65581 13.8667C9.23646 13.8667 10.726 13.6049 12.0388 12.5578C13.5483 11.3538 13.6906 10.6823 13.7823 10.2493C13.7903 10.2117 13.7978 10.1758 13.806 10.1415C13.8213 10.0766 13.8302 9.98851 13.8333 9.88381C13.5162 9.83246 13.0718 9.80306 12.5531 9.86463C11.7049 9.96531 11.0384 10.5442 10.8112 10.8211C10.6849 10.1918 10.0689 8.93333 8.61476 8.93333C7.16059 8.93333 6.37628 10.1918 6.1659 10.8211C6.03125 10.5862 5.5297 10.066 4.60065 9.86463C4.02622 9.74014 3.52513 9.80165 3.16663 9.90641C3.19493 10.3743 3.34873 10.8734 3.75808 11.4C4.46244 12.3061 5.55534 12.8657 6.04294 13.1153C6.09711 13.143 6.14382 13.1669 6.18169 13.1871C6.56038 13.3884 7.59546 13.8667 8.65581 13.8667Z" fill="white"/>
<path fill-rule="evenodd" clip-rule="evenodd" d="M13.8321 9.8654C13.5152 9.8142 13.071 9.78488 12.5527 9.84627C11.7049 9.94666 11.0388 10.5239 10.8117 10.8C10.6855 10.1725 10.0699 8.91764 8.61658 8.91764C7.16326 8.91764 6.37941 10.1725 6.16915 10.8C6.03458 10.5657 5.53332 10.0471 4.60481 9.84627C4.03071 9.72214 3.52992 9.78348 3.17162 9.88798C3.14582 9.46247 3.22432 9.06286 3.30856 8.69176C3.44985 8.06933 3.80478 7.24444 3.96457 6.9098C3.82159 6.56679 3.49023 5.59466 3.30856 4.45019C3.12689 3.30572 3.43472 2.53437 3.61134 2.29176C3.89729 2.36705 4.58022 2.60298 5.02429 2.94431C5.46836 3.28564 6.15128 4.04026 6.43724 4.3749C6.8073 4.27451 7.75936 4.07372 8.60714 4.07372C9.45491 4.07372 10.2724 4.27451 10.5752 4.3749C10.8275 4.07372 11.4482 3.36596 11.9124 2.94431C12.3767 2.52266 13.1319 2.31686 13.4515 2.26666C13.5356 2.37542 13.714 2.69333 13.7543 3.0949C13.8048 3.59686 13.6534 4.65098 13.4515 5.35372C13.2901 5.91592 13.0815 6.57516 12.9974 6.83451C13.0394 6.92653 13.1841 7.22604 13.4263 7.68784C13.6832 8.17755 13.8492 9.28131 13.8321 9.8654Z" fill="#FFAA35"/>
<path d="M9.69163 12.0989C9.63163 12.1792 9.56663 12.3331 9.54163 12.4V12.3749L9.46663 11.7728C9.32498 11.7895 8.95663 11.823 8.61663 11.823C8.27663 11.823 7.87496 11.7895 7.71663 11.7728L7.69163 12.3749C7.67496 12.3498 7.63163 12.2796 7.59163 12.1993C7.54163 12.0989 7.36663 11.9484 7.36663 11.8731C7.36663 11.8129 7.28329 11.6808 7.24163 11.6222L7.16663 11.5219H7.61663L7.71663 11.5972C7.79996 11.5888 8.01163 11.5821 8.19163 11.6222C8.37163 11.6624 8.48328 11.5052 8.51663 11.4215V11.0201C8.44163 10.9699 8.25663 10.8545 8.11663 10.7943C7.94163 10.719 7.76663 10.418 7.81663 10.1169C7.86663 9.81585 8.01663 9.71549 8.11663 9.74058C8.21663 9.76567 8.86663 9.71549 8.96663 9.74058C9.06663 9.76567 9.24163 9.81585 9.31663 9.94129C9.39163 10.0667 9.34163 10.5685 9.19163 10.7441C9.07163 10.8846 8.84163 10.9866 8.74163 11.0201V11.4215C8.74163 11.4717 8.91663 11.5972 8.94163 11.6222C8.96663 11.6473 9.34163 11.6222 9.41663 11.6222C9.47663 11.6222 9.52498 11.5721 9.54163 11.547H9.96663V11.6473C9.96663 11.6975 9.89163 11.9233 9.86663 11.9484C9.84163 11.9735 9.76663 11.9986 9.69163 12.0989Z" fill="black"/>
<path d="M8.88728 11.9333L8.63331 12.1333L8.43013 11.9333L8.25236 12.0222L8.09998 11.8667H9.16664L9.01426 12.0444L8.88728 11.9333Z" fill="black"/>
<path d="M6.15398 7.83076C5.85644 7.70768 5.5341 7.62563 5.41013 7.59999C5.37706 7.61707 5.31095 7.67179 5.31095 7.75384C5.31095 7.8564 5.28615 7.95897 5.31095 8.16409C5.33574 8.36922 5.5341 8.49743 5.88123 8.65127C6.22836 8.80512 6.82344 8.93332 7.24495 8.93332C7.66647 8.93332 7.26975 8.49743 7.12098 8.39486C6.97221 8.2923 6.5259 7.98461 6.15398 7.83076Z" fill="black"/>
<path d="M6.56126 7.15029C6.3389 7.19006 6.03064 7.2 5.9043 7.2C5.77796 7.18344 5.51013 7.10556 5.44949 6.92662C5.37368 6.70295 5.57582 6.45443 5.8285 6.33017C6.08118 6.20591 6.40965 6.25562 6.61179 6.55384C6.81393 6.85207 6.8392 7.10059 6.56126 7.15029Z" fill="white"/>
<path d="M11.1125 7.69743C11.4101 7.57435 11.7324 7.4923 11.8564 7.46666C11.8895 7.48374 11.9556 7.53845 11.9556 7.62051C11.9556 7.72307 11.9804 7.82563 11.9556 8.03076C11.9308 8.23589 11.7324 8.3641 11.3853 8.51794C11.0382 8.67179 10.4431 8.79999 10.0216 8.79999C9.60004 8.79999 9.99676 8.3641 10.1455 8.26153C10.2943 8.15897 10.7406 7.85127 11.1125 7.69743Z" fill="black"/>
<path d="M10.3054 7.15029C10.5278 7.19006 10.836 7.2 10.9624 7.2C11.0887 7.18342 11.3565 7.10556 11.4172 6.92662C11.493 6.70295 11.2908 6.45443 11.0382 6.33017C10.7855 6.20591 10.457 6.25562 10.2549 6.55384C10.0527 6.85207 10.0275 7.10059 10.3054 7.15029Z" fill="white"/>
<path d="M4.82385 5.28992C4.64215 5.48837 4.2939 5.93488 4.14249 6.13333C4.04154 5.91835 3.81947 5.3445 3.73871 4.76899C3.65796 4.19349 3.72189 3.30543 3.76395 2.93333C3.87331 2.9416 4.19296 3.03256 4.59673 3.33023C5.0005 3.62791 5.58934 4.18191 5.83328 4.42171C5.57251 4.62843 5.00555 5.09147 4.82385 5.28992Z" fill="#FF8C30"/>
<path fill-rule="evenodd" clip-rule="evenodd" d="M3.69995 3.40586C4.09681 3.57147 4.61921 3.82462 4.83813 4.05343C5.06021 4.28554 5.25558 4.59279 5.37156 4.8C5.54569 4.65563 5.71871 4.51693 5.83328 4.4268C5.58662 4.18619 4.99123 3.63028 4.58296 3.33159C4.1747 3.0329 3.85148 2.94163 3.74091 2.93333C3.72771 3.04924 3.71238 3.21504 3.69995 3.40586Z" fill="#FF9A32"/>
<path d="M12.0428 5.28992C12.2245 5.48837 12.5727 5.93488 12.7241 6.13333C12.8251 5.91835 13.0471 5.3445 13.1279 4.76899C13.2087 4.19349 13.1447 3.30543 13.1027 2.93333C12.9933 2.9416 12.6737 3.03256 12.2699 3.33023C11.8661 3.62791 11.2773 4.18191 11.0333 4.42171C11.2941 4.62843 11.8611 5.09147 12.0428 5.28992Z" fill="#FF8C30"/>
<path fill-rule="evenodd" clip-rule="evenodd" d="M13.1667 3.40586C12.7698 3.57147 12.2474 3.82462 12.0285 4.05343C11.8064 4.28554 11.611 4.59279 11.4951 4.8C11.3209 4.65563 11.1479 4.51693 11.0333 4.4268C11.28 4.18619 11.8754 3.63028 12.2836 3.33159C12.6919 3.0329 13.0151 2.94163 13.1257 2.93333C13.1389 3.04924 13.1542 3.21504 13.1667 3.40586Z" fill="#FF9A32"/>
</svg>
