<svg width="24" height="24" viewBox="0 0 24 24" fill="none" xmlns="http://www.w3.org/2000/svg">
<path d="M12 24C18.6274 24 24 18.6274 24 12C24 5.37258 18.6274 0 12 0C5.37258 0 0 5.37258 0 12C0 18.6274 5.37258 24 12 24Z" fill="#3E73C4"/>
<path d="M15.0162 13.5932C15.0162 12.0002 14.0562 11.4542 12.1362 11.2262C10.7652 11.0439 10.4914 10.6802 10.4914 10.0427C10.4914 9.40519 10.9489 8.99569 11.8624 8.99569C12.6852 8.99569 13.1427 9.26869 13.3707 9.95194C13.3944 10.018 13.4379 10.0752 13.4951 10.1158C13.5524 10.1565 13.6207 10.1786 13.6909 10.1792H14.4222C14.4644 10.1803 14.5064 10.1729 14.5457 10.1573C14.585 10.1417 14.6207 10.1182 14.6506 10.0884C14.6805 10.0586 14.7041 10.0231 14.7199 9.98386C14.7357 9.94467 14.7434 9.90268 14.7424 9.86044V9.81544C14.6531 9.32111 14.4029 8.87014 14.0309 8.53257C13.6589 8.19501 13.1858 7.98975 12.6852 7.94869V6.85669C12.6852 6.67444 12.5479 6.53794 12.3199 6.49219H11.6337C11.4514 6.49219 11.3142 6.62869 11.2684 6.85669V7.90369C9.89668 8.08519 9.02893 8.99569 9.02893 10.1342C9.02893 11.6357 9.94243 12.2274 11.8624 12.4554C13.1427 12.6827 13.5537 12.9564 13.5537 13.6847C13.5537 14.4122 12.9139 14.9132 12.0454 14.9132C10.8567 14.9132 10.4457 14.4129 10.3084 13.7297C10.2634 13.5482 10.1254 13.4567 9.98818 13.4567H9.21118C9.169 13.4557 9.12706 13.4632 9.08788 13.4788C9.04871 13.4945 9.01311 13.5179 8.98324 13.5477C8.95338 13.5775 8.92987 13.6131 8.91413 13.6522C8.89839 13.6913 8.89075 13.7333 8.89168 13.7754V13.8204C9.07393 14.9589 9.80593 15.7779 11.3142 16.0059V17.0987C11.3142 17.2802 11.4514 17.4174 11.6794 17.4624H12.3657C12.5479 17.4624 12.6852 17.3259 12.7309 17.0987V16.0052C14.1027 15.7779 15.0162 14.8217 15.0162 13.5924V13.5932Z" fill="white"/>
<path d="M9.66897 18.3732C6.10347 17.0982 4.27497 13.1382 5.60097 9.63349C6.28647 7.72099 7.79472 6.26524 9.66897 5.58199C9.85197 5.49124 9.94272 5.35474 9.94272 5.12674V4.48924C9.94272 4.30774 9.85197 4.17124 9.66897 4.12549C9.62322 4.12549 9.53172 4.12549 9.48597 4.17049C8.45729 4.49173 7.50232 5.01328 6.67604 5.70512C5.84976 6.39695 5.16849 7.2454 4.67145 8.20161C4.17442 9.15782 3.87145 10.2029 3.77998 11.2767C3.6885 12.3505 3.81034 13.4317 4.13847 14.4582C4.96047 17.0082 6.92622 18.9657 9.48597 19.7847C9.66897 19.8755 9.85197 19.7847 9.89697 19.6025C9.94272 19.5575 9.94272 19.511 9.94272 19.4202V18.7827C9.94272 18.6462 9.80622 18.4647 9.66897 18.3732ZM14.514 4.17124C14.331 4.07974 14.148 4.17124 14.103 4.35274C14.0572 4.39849 14.0572 4.44424 14.0572 4.53499V5.17249C14.0572 5.35474 14.1937 5.53624 14.331 5.62774C17.8965 6.90274 19.725 10.8627 18.399 14.3675C17.7135 16.28 16.2052 17.7357 14.331 18.419C14.148 18.5097 14.0572 18.6462 14.0572 18.8742V19.5117C14.0572 19.6932 14.148 19.8297 14.331 19.8755C14.3767 19.8755 14.4682 19.8755 14.514 19.8305C15.5426 19.5092 16.4976 18.9877 17.3239 18.2959C18.1502 17.604 18.8315 16.7556 19.3285 15.7994C19.8255 14.8432 20.1285 13.7981 20.22 12.7243C20.3114 11.6505 20.1896 10.5692 19.8615 9.54274C19.0395 6.94774 17.028 4.99024 14.514 4.17124Z" fill="white"/>
</svg>
