<svg width="17" height="16" viewBox="0 0 17 16" fill="none" xmlns="http://www.w3.org/2000/svg">
<circle cx="8.5" cy="8" r="8" fill="#7833F6"/>
<path fill-rule="evenodd" clip-rule="evenodd" d="M5.63331 8.03425C5.76164 8.16222 5.93548 8.23409 6.11672 8.23409C6.29795 8.23409 6.47179 8.16222 6.60013 8.03425L8.53426 6.10011C8.66223 5.97178 8.73411 5.79794 8.73411 5.6167C8.73411 5.43547 8.66223 5.26163 8.53426 5.1333C8.40592 5.00525 8.23203 4.93333 8.05073 4.93333C7.86943 4.93333 7.69554 5.00525 7.56719 5.1333L5.63331 7.06717C5.50526 7.19552 5.43335 7.36941 5.43335 7.55071C5.43335 7.73201 5.50526 7.9059 5.63331 8.03425ZM8.33299 9.76682L10.2669 7.83293C10.3952 7.70487 10.5691 7.63296 10.7504 7.63296C10.9317 7.63296 11.1056 7.70487 11.2339 7.83293C11.362 7.96127 11.4339 8.13516 11.4339 8.31646C11.4339 8.49776 11.362 8.67165 11.2339 8.8L9.30006 10.7339C9.17172 10.8619 8.99783 10.9338 8.81653 10.9338C8.63523 10.9338 8.46134 10.8619 8.33299 10.7339C8.20494 10.6055 8.13302 10.4316 8.13302 10.2504C8.13302 10.0691 8.20494 9.89516 8.33299 9.76682ZM8.19146 8.85847C8.01017 8.85847 7.83626 8.78656 7.70794 8.65851C7.57988 8.53016 7.50797 8.35627 7.50797 8.17497C7.50797 7.99367 7.57988 7.81978 7.70794 7.69143L8.19146 7.20791C8.3198 7.07986 8.49369 7.00795 8.67499 7.00795C8.85629 7.00795 9.03018 7.07986 9.15853 7.20791C9.28658 7.33624 9.3585 7.51015 9.3585 7.69143C9.3585 7.87273 9.28658 8.04662 9.15853 8.17497L8.67499 8.65851C8.54665 8.78656 8.37276 8.85847 8.19146 8.85847Z" fill="white"/>
</svg>
