<svg width="41" height="40" viewBox="0 0 41 40" fill="none" xmlns="http://www.w3.org/2000/svg">
<g clip-path="url(#clip0_2844_10260)">
<path d="M40.1065 33.4498C34.239 22.7311 28.369 12.0123 22.5002 1.29357C22.3045 0.922612 22.0113 0.612105 21.6521 0.395512C21.293 0.178919 20.8815 0.0644531 20.4621 0.0644531C20.0427 0.0644531 19.6312 0.178919 19.2721 0.395512C18.9129 0.612105 18.6197 0.922612 18.424 1.29357C12.5559 12.0123 6.68274 22.7311 0.817741 33.4498C-0.0903835 35.1054 1.06712 37.2517 2.85399 37.2517H38.0727C39.0627 37.2517 39.7277 36.7186 40.0746 35.9954C40.5109 35.3067 40.6277 34.3923 40.109 33.4486" fill="#FFDD15"/>
<path d="M18.5731 21.548L18.0175 13.2592C17.9138 11.6449 17.8638 10.4849 17.8638 9.78111C17.8638 8.82236 18.1138 8.07674 18.615 7.53861C19.1181 7.00361 19.7794 6.73486 20.5994 6.73486C21.5888 6.73486 22.2531 7.07924 22.5856 7.76361C22.9213 8.45236 23.0913 9.44111 23.0913 10.733C23.0913 11.4924 23.05 12.2661 22.9675 13.0505L22.2238 21.5811C22.1431 22.5974 21.9713 23.3761 21.7069 23.918C21.4406 24.4624 21.0019 24.7311 20.3888 24.7311C19.7688 24.7311 19.3325 24.4692 19.0938 23.9455C18.8481 23.4199 18.6763 22.6205 18.5731 21.548ZM20.4931 32.9336C19.79 32.9336 19.1769 32.7074 18.6513 32.2505C18.1256 31.7955 17.8638 31.158 17.8638 30.3392C17.8638 29.6249 18.1138 29.0142 18.615 28.5136C19.1181 28.0099 19.7313 27.7599 20.4594 27.7599C21.1875 27.7599 21.805 28.0099 22.32 28.5136C22.8294 29.0142 23.0913 29.6249 23.0913 30.3392C23.0913 31.1455 22.8294 31.7817 22.3125 32.2417C21.8156 32.6945 21.1654 32.9418 20.4931 32.9336Z" fill="#1F2E35"/>
</g>
<defs>
<clipPath id="clip0_2844_10260">
<rect width="40" height="40" fill="white" transform="translate(0.5)"/>
</clipPath>
</defs>
</svg>
