<svg width="17" height="16" viewBox="0 0 17 16" fill="none" xmlns="http://www.w3.org/2000/svg">
<path d="M16.2606 9.93524C15.1921 14.221 10.8508 16.8292 6.56404 15.7605C2.27909 14.692 -0.329432 10.351 0.739615 6.06558C1.80772 1.77935 6.14899 -0.829071 10.4344 0.239387C14.7208 1.30785 17.3292 5.64936 16.2605 9.93532L16.2606 9.93524H16.2606Z" fill="#F7931A"/>
<path fill-rule="evenodd" clip-rule="evenodd" d="M12.0281 6.86019C12.1873 5.79557 11.3767 5.22329 10.2682 4.84153L10.6278 3.3994L9.74984 3.18065L9.39979 4.58481C9.16898 4.52725 8.93194 4.47302 8.69636 4.41925L9.04895 3.00582L8.17153 2.78708L7.81174 4.22874C7.62074 4.18526 7.43314 4.14228 7.25113 4.097L7.25215 4.09246L6.04142 3.79016L5.80787 4.72777C5.80787 4.72777 6.45924 4.87707 6.44552 4.88626C6.80104 4.97498 6.86534 5.21031 6.85466 5.39683L6.44505 7.03975C6.46953 7.04597 6.50128 7.05497 6.53632 7.06904L6.51083 7.06268L6.51078 7.06267C6.48913 7.05725 6.46663 7.05162 6.44352 7.04609L5.86938 9.34759C5.82593 9.45559 5.71565 9.61768 5.46708 9.55613C5.47588 9.56888 4.82896 9.3969 4.82896 9.3969L4.39307 10.4018L5.5356 10.6866C5.66071 10.7179 5.78435 10.7502 5.90674 10.7821C5.99226 10.8044 6.07718 10.8265 6.16156 10.8481L5.79824 12.3067L6.6752 12.5255L7.03499 11.0823C7.27456 11.1473 7.50706 11.2073 7.73466 11.2638L7.37608 12.7002L8.25409 12.919L8.61736 11.463C10.1145 11.7463 11.2402 11.6321 11.714 10.2781C12.0958 9.18801 11.695 8.55923 10.9074 8.14919C11.4811 8.01691 11.9132 7.63964 12.0284 6.86031L12.0281 6.86011L12.0281 6.86019ZM10.0221 9.67274C9.77317 10.6729 8.20748 10.2594 7.49113 10.0702C7.42669 10.0532 7.36912 10.038 7.32 10.0258L7.80212 8.09332C7.86198 8.10826 7.93513 8.12467 8.018 8.14327L8.01801 8.14327C8.75899 8.30954 10.2772 8.65021 10.0221 9.67274H10.0221ZM8.1666 7.24637C8.76384 7.40574 10.0667 7.75341 10.2936 6.8444H10.2937C10.5254 5.9147 9.25921 5.63441 8.64082 5.49751C8.57125 5.48211 8.50988 5.46852 8.45976 5.45603L8.02266 7.20868C8.06393 7.21897 8.11235 7.23189 8.1666 7.24637Z" fill="white"/>
</svg>
