<svg width="41" height="40" viewBox="0 0 41 40" fill="none" xmlns="http://www.w3.org/2000/svg">
<g clip-path="url(#clip0_2824_9999)">
<path d="M20.8979 40C31.9436 40 40.8979 31.0457 40.8979 20C40.8979 8.9543 31.9436 0 20.8979 0C9.85225 0 0.897949 8.9543 0.897949 20C0.897949 31.0457 9.85225 40 20.8979 40Z" fill="#3E73C4"/>
<path d="M25.9254 22.655C25.9254 20 24.3254 19.09 21.1254 18.71C18.8404 18.4063 18.3841 17.8 18.3841 16.7375C18.3841 15.675 19.1466 14.9925 20.6691 14.9925C22.0404 14.9925 22.8029 15.4475 23.1829 16.5863C23.2225 16.6964 23.2949 16.7917 23.3903 16.8594C23.4857 16.9271 23.5996 16.964 23.7166 16.965H24.9354C25.0058 16.9669 25.0758 16.9544 25.1413 16.9284C25.2067 16.9024 25.2662 16.8634 25.3161 16.8138C25.366 16.7641 25.4053 16.7048 25.4316 16.6395C25.4579 16.5741 25.4707 16.5042 25.4691 16.4338V16.3588C25.3202 15.5349 24.9033 14.7833 24.2833 14.2207C23.6633 13.658 22.8748 13.3159 22.0404 13.2475V11.4275C22.0404 11.1238 21.8116 10.8963 21.4316 10.82H20.2879C19.9841 10.82 19.7554 11.0475 19.6791 11.4275V13.1725C17.3929 13.475 15.9466 14.9925 15.9466 16.89C15.9466 19.3925 17.4691 20.3788 20.6691 20.7588C22.8029 21.1375 23.4879 21.5938 23.4879 22.8075C23.4879 24.02 22.4216 24.855 20.9741 24.855C18.9929 24.855 18.3079 24.0213 18.0791 22.8825C18.0041 22.58 17.7741 22.4275 17.5454 22.4275H16.2504C16.1801 22.4258 16.1102 22.4384 16.0449 22.4644C15.9796 22.4905 15.9203 22.5296 15.8705 22.5792C15.8207 22.6289 15.7815 22.6881 15.7553 22.7534C15.7291 22.8186 15.7164 22.8885 15.7179 22.9588V23.0338C16.0216 24.9313 17.2416 26.2963 19.7554 26.6763V28.4975C19.7554 28.8 19.9841 29.0288 20.3641 29.1038H21.5079C21.8116 29.1038 22.0404 28.8763 22.1166 28.4975V26.675C24.4029 26.2963 25.9254 24.7025 25.9254 22.6538V22.655Z" fill="white"/>
<path d="M17.0129 30.6213C11.0704 28.4963 8.02294 21.8962 10.2329 16.055C11.3754 12.8675 13.8892 10.4412 17.0129 9.3025C17.3179 9.15125 17.4692 8.92375 17.4692 8.54375V7.48125C17.4692 7.17875 17.3179 6.95125 17.0129 6.875C16.9367 6.875 16.7842 6.875 16.7079 6.95C14.9935 7.48541 13.4019 8.35466 12.0247 9.50772C10.6476 10.6608 9.51213 12.0749 8.68375 13.6685C7.85536 15.2622 7.35041 17.004 7.19795 18.7937C7.0455 20.5833 7.24856 22.3854 7.79544 24.0963C9.16544 28.3463 12.4417 31.6087 16.7079 32.9737C17.0129 33.125 17.3179 32.9737 17.3929 32.67C17.4692 32.595 17.4692 32.5175 17.4692 32.3662V31.3037C17.4692 31.0762 17.2417 30.7738 17.0129 30.6213ZM25.0879 6.95125C24.7829 6.79875 24.4779 6.95125 24.4029 7.25375C24.3267 7.33 24.3267 7.40625 24.3267 7.5575V8.62C24.3267 8.92375 24.5542 9.22625 24.7829 9.37875C30.7254 11.5037 33.7729 18.1038 31.5629 23.945C30.4204 27.1325 27.9067 29.5588 24.7829 30.6975C24.4779 30.8488 24.3267 31.0763 24.3267 31.4563V32.5187C24.3267 32.8212 24.4779 33.0487 24.7829 33.125C24.8592 33.125 25.0117 33.125 25.0879 33.05C26.8024 32.5146 28.394 31.6453 29.7712 30.4923C31.1483 29.3392 32.2837 27.9251 33.1121 26.3315C33.9405 24.7378 34.4455 22.996 34.5979 21.2063C34.7504 19.4167 34.5473 17.6146 34.0004 15.9037C32.6304 11.5787 29.2779 8.31625 25.0879 6.95125Z" fill="white"/>
</g>
<defs>
<clipPath id="clip0_2824_9999">
<rect width="40" height="40" fill="white" transform="translate(0.897949)"/>
</clipPath>
</defs>
</svg>
