<svg width="40" height="40" viewBox="0 0 40 40" fill="none" xmlns="http://www.w3.org/2000/svg">
<rect width="40" height="40" rx="8" fill="#393939"/>
<path d="M12 14C12 13.4696 12.2107 12.9609 12.5858 12.5858C12.9609 12.2107 13.4696 12 14 12H26C26.5304 12 27.0391 12.2107 27.4142 12.5858C27.7893 12.9609 28 13.4696 28 14V16C28 16.5304 27.7893 17.0391 27.4142 17.4142C27.0391 17.7893 26.5304 18 26 18H14C13.4696 18 12.9609 17.7893 12.5858 17.4142C12.2107 17.0391 12 16.5304 12 16V14ZM12 24C12 23.4696 12.2107 22.9609 12.5858 22.5858C12.9609 22.2107 13.4696 22 14 22H26C26.5304 22 27.0391 22.2107 27.4142 22.5858C27.7893 22.9609 28 23.4696 28 24V26C28 26.5304 27.7893 27.0391 27.4142 27.4142C27.0391 27.7893 26.5304 28 26 28H14C13.4696 28 12.9609 27.7893 12.5858 27.4142C12.2107 27.0391 12 26.5304 12 26V24Z" stroke="#72C5B6" stroke-width="2" stroke-linecap="round" stroke-linejoin="round"/>
</svg>
