<svg width="32" height="32" viewBox="0 0 32 32" fill="none" xmlns="http://www.w3.org/2000/svg">
<path d="M25.3333 29.3333V19.8667C25.3331 18.6408 25.0913 17.427 24.6218 16.2945C24.1524 15.1621 23.4645 14.1332 22.5973 13.2667L19.9973 10.6667V19.4493C19.9973 20.636 18.5613 21.232 17.7213 20.392L15.9946 18.6667C15.328 18 13.7266 17.6 12.6586 18.6667C11.592 19.7333 11.992 21.3333 12.6586 22L19.9973 29.3333" stroke="#368489" stroke-width="2" stroke-linecap="round" stroke-linejoin="round"/>
<path d="M14.6667 2.66667H17.3333C18.0406 2.66667 18.7188 2.94762 19.2189 3.44772C19.719 3.94782 20 4.62609 20 5.33334V8M14.6667 2.66667C14.6667 4.444 15.7333 8 20 8M14.6667 2.66667H12M20 8V16M12 2.66667H9.33332C8.62608 2.66667 7.9478 2.94762 7.4477 3.44772C6.94761 3.94782 6.66666 4.62609 6.66666 5.33334V8M12 2.66667C12 4.444 10.9333 8 6.66666 8M6.66666 16V18.6667C6.66666 19.3739 6.94761 20.0522 7.4477 20.5523C7.9478 21.0524 8.62608 21.3333 9.33332 21.3333H12C12 19.556 10.9333 16 6.66666 16ZM6.66666 16V8" stroke="#368489" stroke-width="2" stroke-linecap="round" stroke-linejoin="round"/>
<path d="M12 12C12 12.7364 12.5969 13.3333 13.3333 13.3333C14.0697 13.3333 14.6667 12.7364 14.6667 12C14.6667 11.2636 14.0697 10.6667 13.3333 10.6667C12.5969 10.6667 12 11.2636 12 12Z" stroke="#368489" stroke-width="2" stroke-linecap="round" stroke-linejoin="round"/>
</svg>
