<svg xmlns="http://www.w3.org/2000/svg" width="30" height="30" viewBox="0 0 30 30" fill="none">
  <path d="M3.75 12.5V10C3.75 9.33696 4.01339 8.70107 4.48223 8.23223C4.95107 7.76339 5.58696 7.5 6.25 7.5H8.75M3.75 12.5C5.41625 12.5 8.75 11.5 8.75 7.5M3.75 12.5V17.5M8.75 7.5H21.25M3.75 17.5V20C3.75 20.663 4.01339 21.2989 4.48223 21.7678C4.95107 22.2366 5.58696 22.5 6.25 22.5H8.75M3.75 17.5C5.41625 17.5 8.75 18.5 8.75 22.5M26.25 12.5V10C26.25 9.33696 25.9866 8.70107 25.5178 8.23223C25.0489 7.76339 24.413 7.5 23.75 7.5H21.25M26.25 12.5C24.5838 12.5 21.25 11.5 21.25 7.5M26.25 12.5V15M8.75 22.5H13.75" stroke="#72C5B6" stroke-width="2" stroke-linecap="round" stroke-linejoin="round"/>
  <path d="M15 17.5C16.3807 17.5 17.5 16.3807 17.5 15C17.5 13.6193 16.3807 12.5 15 12.5C13.6193 12.5 12.5 13.6193 12.5 15C12.5 16.3807 13.6193 17.5 15 17.5Z" stroke="#72C5B6" stroke-width="2" stroke-linecap="round" stroke-linejoin="round"/>
  <path d="M22.5 18.75V22.5M22.5 22.5V26.25M22.5 22.5H18.75M22.5 22.5H26.25" stroke="#72C5B6" stroke-width="2" stroke-linecap="round" stroke-linejoin="round"/>
</svg>