<svg width="32" height="32" viewBox="0 0 32 32" fill="none" xmlns="http://www.w3.org/2000/svg">
<path d="M23.2187 13.8853C24 13.104 24 11.848 24 9.33333C24 6.81867 24 5.56267 23.2187 4.78133M23.2187 13.8853C22.4373 14.6667 21.1813 14.6667 18.6667 14.6667H13.3333C10.8187 14.6667 9.56267 14.6667 8.78133 13.8853M23.2187 4.78133C22.4373 4 21.1813 4 18.6667 4H13.3333C10.8187 4 9.56267 4 8.78133 4.78133M8.78133 4.78133C8 5.56267 8 6.81867 8 9.33333C8 11.848 8 13.104 8.78133 13.8853M17.3333 9.33333C17.3333 9.68695 17.1929 10.0261 16.9428 10.2761C16.6928 10.5262 16.3536 10.6667 16 10.6667C15.6464 10.6667 15.3072 10.5262 15.0572 10.2761C14.8071 10.0261 14.6667 9.68695 14.6667 9.33333C14.6667 8.97971 14.8071 8.64057 15.0572 8.39052C15.3072 8.14048 15.6464 8 16 8C16.3536 8 16.6928 8.14048 16.9428 8.39052C17.1929 8.64057 17.3333 8.97971 17.3333 9.33333Z" stroke="#368489" stroke-width="1.5"/>
<path d="M24 8C22.9391 8 21.9217 7.57857 21.1716 6.82843C20.4214 6.07828 20 5.06087 20 4M24 10.6667C22.9391 10.6667 21.9217 11.0881 21.1716 11.8382C20.4214 12.5884 20 13.6058 20 14.6667M8.00001 8C9.06088 8 10.0783 7.57857 10.8284 6.82843C11.5786 6.07828 12 5.06087 12 4M8.00001 10.6667C9.06088 10.6667 10.0783 11.0881 10.8284 11.8382C11.5786 12.5884 12 13.6058 12 14.6667M5.33334 28.5173H8.34668C9.69334 28.5173 11.0573 28.6587 12.368 28.928C14.708 29.4087 17.1157 29.462 19.4747 29.0853M18.2347 24.6893C18.3947 24.6707 18.548 24.6493 18.6947 24.6267C19.9093 24.4333 20.9293 23.7827 21.8627 23.0773L24.2733 21.2573C24.7034 20.9445 25.2215 20.776 25.7533 20.776C26.2852 20.776 26.8033 20.9445 27.2333 21.2573C27.9973 21.8347 28.232 22.7853 27.748 23.5613C27.184 24.4653 26.3893 25.6213 25.6267 26.328M18.2347 24.6893C18.1858 24.695 18.1369 24.7003 18.088 24.7053M18.2347 24.6893C18.4481 24.6316 18.6438 24.5216 18.804 24.3693C19.0049 24.1955 19.169 23.9832 19.2865 23.745C19.4041 23.5067 19.4727 23.2473 19.4883 22.9821C19.504 22.7169 19.4664 22.4512 19.3777 22.2008C19.289 21.9504 19.1511 21.7203 18.972 21.524C18.7983 21.3311 18.5959 21.1661 18.372 21.0347C14.6427 18.8093 8.83868 20.504 5.33334 22.9907M18.2347 24.6893C18.1865 24.6998 18.1373 24.7052 18.088 24.7053M18.088 24.7053C17.2839 24.7861 16.4738 24.7879 15.6693 24.7107" stroke="#368489" stroke-width="1.5" stroke-linecap="round"/>
</svg>
