<svg width="32" height="32" viewBox="0 0 32 32" fill="none" xmlns="http://www.w3.org/2000/svg">
<rect width="32" height="32" rx="16" fill="white"/>
<path d="M18.068 18.0307L16.7173 21.564C16.6964 21.6134 16.6857 21.6664 16.6857 21.72C16.6857 21.7736 16.6964 21.8267 16.7173 21.876L19.0333 27.964L21.7253 26.4827L18.5 18.0293C18.4823 17.9878 18.4526 17.9525 18.4147 17.928C18.3758 17.9028 18.3304 17.8893 18.284 17.8893C18.2376 17.8893 18.1922 17.9028 18.1533 17.928C18.1152 17.9529 18.0855 17.9887 18.068 18.0307ZM20.7693 12.076C20.7523 12.033 20.7225 11.9963 20.684 11.9707C20.645 11.9451 20.5993 11.9315 20.5527 11.9315C20.506 11.9315 20.4604 11.9451 20.4213 11.9707C20.3833 11.9965 20.354 12.0332 20.3373 12.076L18.9867 15.6093C18.966 15.6585 18.9553 15.7113 18.9553 15.7647C18.9553 15.818 18.966 15.8708 18.9867 15.92L22.7907 25.8893L25.476 24.408L20.7693 12.0667V12.076Z" fill="black"/>
<path d="M16 4.15467C16.0684 4.15467 16.1324 4.17245 16.192 4.208L26.6093 10.0213C26.6672 10.0533 26.7162 10.0991 26.752 10.1547C26.7858 10.2133 26.8027 10.2756 26.8027 10.3413V21.652C26.8029 21.717 26.7849 21.7808 26.7507 21.836C26.7152 21.8914 26.6667 21.9372 26.6093 21.9693L16.192 27.8067C16.133 27.8391 16.0667 27.8561 15.9993 27.8561C15.932 27.8561 15.8657 27.8391 15.8067 27.8067L5.38932 21.98C5.33132 21.9477 5.28229 21.9014 5.24665 21.8453C5.2124 21.7892 5.19482 21.7244 5.19599 21.6587V10.3413C5.19724 10.2757 5.21577 10.2116 5.24971 10.1554C5.28365 10.0992 5.33181 10.053 5.38932 10.0213L15.8067 4.208C15.8648 4.17129 15.9313 4.15017 16 4.14667V4.15467ZM16 2.66667C15.6373 2.66667 15.2667 2.76134 14.9427 2.94L4.71065 8.592C4.39253 8.76611 4.12582 9.02086 3.93732 9.33067C3.75251 9.63547 3.65433 9.98489 3.65332 10.3413V21.652C3.65332 22.372 4.05465 23.0453 4.71065 23.408L14.9427 29.0613C15.2658 29.2411 15.6295 29.3355 15.9993 29.3355C16.3691 29.3355 16.7328 29.2411 17.056 29.0613L27.2893 23.408C27.6093 23.2349 27.8773 22.9795 28.0653 22.668C28.252 22.3587 28.348 22.008 28.3453 21.652V10.3413C28.3427 9.98162 28.2431 9.62926 28.057 9.32139C27.8709 9.01353 27.6053 8.76155 27.288 8.592L17.056 2.93867C16.7314 2.76342 16.3689 2.67005 16 2.66667Z" fill="black"/>
<path d="M9.23334 25.904L10.1733 23.4373L12.064 24.9413L10.2987 26.4973L9.23334 25.904Z" fill="black"/>
<path d="M15.1466 9.33466H12.5426C12.4471 9.33637 12.3543 9.36654 12.276 9.42133C12.2001 9.47471 12.1423 9.5501 12.1106 9.63733L6.55731 24.4L9.23465 25.904L15.3613 9.64399C15.3742 9.60927 15.3784 9.5719 15.3735 9.53518C15.3687 9.49845 15.3548 9.46348 15.3333 9.43333C15.3101 9.40282 15.2803 9.37797 15.2461 9.36065C15.212 9.34333 15.1743 9.33399 15.136 9.33333L15.1466 9.33466ZM19.6826 9.33466H17.0906C16.9964 9.33571 16.9046 9.36446 16.8266 9.41733C16.7502 9.4696 16.6915 9.54406 16.6586 9.63066L10.2986 26.476L12.9853 27.98L19.8986 9.63866C19.919 9.58774 19.919 9.53092 19.8986 9.48C19.8789 9.42832 19.841 9.38564 19.792 9.35999C19.7577 9.34389 19.7205 9.33525 19.6826 9.33466Z" fill="black"/>
</svg>
